<svg width="1960" height="780" viewBox="0 0 1960 780" xmlns="http://www.w3.org/2000/svg">
<style>
  .mono{ font-family:'Consolas','Courier New',monospace; }
  .sans{ font-family:'Inter','Segoe UI',system-ui,sans-serif; }
  .blink{ animation:blink 1.1s step-end infinite; }
  @keyframes blink{ 50%{ opacity:0; } }
  .pulse{ animation:pulse 2.6s ease-in-out infinite; transform-box:fill-box; transform-origin:center; }
  @keyframes pulse{ 0%,100%{ opacity:0.55; } 50%{ opacity:1; } }
  .float{ animation:floaty 5s ease-in-out infinite; transform-box:fill-box; transform-origin:center; }
  .float2{ animation:floaty 4.2s ease-in-out infinite; transform-box:fill-box; transform-origin:center; }
  @keyframes floaty{ 0%,100%{ transform:translateY(0);} 50%{ transform:translateY(-8px);} }
  .twinkle{ animation:tw 3s ease-in-out infinite; }
  @keyframes tw{ 0%,100%{ opacity:0.2;} 50%{ opacity:0.9;} }
  .steam{ animation:steamRise 4s ease-in-out infinite; transform-box:fill-box; transform-origin:center; }
  @keyframes steamRise{ 0%{ transform:translateY(0); opacity:0;} 30%{opacity:0.6;} 100%{ transform:translateY(-18px); opacity:0;} }
  .drift{ animation:driftBlob 14s ease-in-out infinite; }
  @keyframes driftBlob{ 0%,100%{ transform:translate(0,0);} 50%{ transform:translate(-18px,14px);} }
  .flow{ stroke-dasharray:6 8; animation:flowDash 5s linear infinite; }
  @keyframes flowDash{ to{ stroke-dashoffset:-140; } }
  .ring{ animation:ringPulse 2.4s ease-in-out infinite; transform-box:fill-box; transform-origin:center; }
  @keyframes ringPulse{ 0%{ opacity:0.7; transform:scale(1);} 100%{ opacity:0; transform:scale(1.6);} }
  .barGrow{ animation:barGrow 3.2s ease-in-out infinite; transform-box:fill-box; transform-origin:left; }
  @keyframes barGrow{ 0%,100%{ transform:scaleX(0.72);} 50%{ transform:scaleX(1);} }
  .scan{ animation:scanMove 6s linear infinite; }
  @keyframes scanMove{ 0%{ transform:translateY(-260px);} 100%{ transform:translateY(260px);} }
</style>

<defs>
  <linearGradient id="nameGrad" x1="0" y1="0" x2="1" y2="0">
    <stop offset="0" stop-color="#5B8DEF"/>
    <stop offset="1" stop-color="#A855F7"/>
  </linearGradient>
  <linearGradient id="personGrad" x1="0" y1="0" x2="0" y2="1">
    <stop offset="0" stop-color="#4433804d"/>
    <stop offset="0" stop-color="#3B2E6B"/>
    <stop offset="1" stop-color="#181235"/>
  </linearGradient>
  <linearGradient id="hairGrad" x1="0" y1="0" x2="0" y2="1">
    <stop offset="0" stop-color="#2A2354"/>
    <stop offset="1" stop-color="#100C24"/>
  </linearGradient>
  <linearGradient id="winGrad" x1="0" y1="0" x2="1" y2="1">
    <stop offset="0" stop-color="rgba(124,58,237,0.10)"/>
    <stop offset="1" stop-color="rgba(6,182,212,0.06)"/>
  </linearGradient>
  <radialGradient id="deskGlow" cx="50%" cy="0%" r="80%">
    <stop offset="0" stop-color="#7C3AED" stop-opacity="0.16"/>
    <stop offset="1" stop-color="#7C3AED" stop-opacity="0"/>
  </radialGradient>
  <radialGradient id="lampGlow" cx="50%" cy="50%" r="50%">
    <stop offset="0" stop-color="#FCD34D" stop-opacity="0.55"/>
    <stop offset="1" stop-color="#FCD34D" stop-opacity="0"/>
  </radialGradient>
  <radialGradient id="avatarGlow" cx="50%" cy="50%" r="50%">
    <stop offset="0" stop-color="#06B6D4" stop-opacity="0.45"/>
    <stop offset="1" stop-color="#06B6D4" stop-opacity="0"/>
  </radialGradient>
  <linearGradient id="heat0" x1="0" y1="0" x2="0" y2="1"><stop offset="0" stop-color="#161A33"/><stop offset="1" stop-color="#12152C"/></linearGradient>
  <linearGradient id="heat1" x1="0" y1="0" x2="0" y2="1"><stop offset="0" stop-color="#1F5B45"/><stop offset="1" stop-color="#164A38"/></linearGradient>
  <linearGradient id="heat2" x1="0" y1="0" x2="0" y2="1"><stop offset="0" stop-color="#22C57A"/><stop offset="1" stop-color="#1AA868"/></linearGradient>
  <linearGradient id="heat3" x1="0" y1="0" x2="0" y2="1"><stop offset="0" stop-color="#6EE7B7"/><stop offset="1" stop-color="#4ADE9A"/></linearGradient>
  <filter id="blurLg" x="-60%" y="-60%" width="220%" height="220%"><feGaussianBlur stdDeviation="60"/></filter>
  <filter id="blurMd" x="-60%" y="-60%" width="220%" height="220%"><feGaussianBlur stdDeviation="18"/></filter>
  <filter id="glowSm" x="-80%" y="-80%" width="260%" height="260%">
    <feGaussianBlur stdDeviation="3" result="b"/>
    <feMerge><feMergeNode in="b"/><feMergeNode in="SourceGraphic"/></feMerge>
  </filter>
  <clipPath id="clipScan"><rect x="1150" y="190" width="500" height="360" rx="14"/></clipPath>
</defs>

<!-- ================= BACKGROUND ================= -->
<rect x="0" y="0" width="1960" height="780" fill="#050816"/>
<rect x="0" y="0" width="1960" height="780" fill="url(#deskGlow)"/>

<!-- large soft depth blobs -->
<g class="drift" style="animation-duration:18s">
  <circle cx="1700" cy="120" r="220" fill="#7C3AED" opacity="0.16" filter="url(#blurLg)"/>
</g>
<g class="drift" style="animation-duration:22s; animation-delay:-6s">
  <circle cx="1850" cy="600" r="180" fill="#06B6D4" opacity="0.12" filter="url(#blurLg)"/>
</g>
<g class="drift" style="animation-duration:20s; animation-delay:-11s">
  <circle cx="140" cy="700" r="160" fill="#A855F7" opacity="0.10" filter="url(#blurLg)"/>
</g>

<!-- faint structural grid -->
<g stroke="#8B5CF6" stroke-opacity="0.05">
  <line x1="0" y1="130" x2="1960" y2="130"/>
  <line x1="0" y1="260" x2="1960" y2="260"/>
  <line x1="0" y1="390" x2="1960" y2="390"/>
  <line x1="0" y1="520" x2="1960" y2="520"/>
  <line x1="0" y1="650" x2="1960" y2="650"/>
</g>

<!-- ambient particle field -->
<g fill="#A78BFA">
  <circle class="twinkle" cx="900" cy="70" r="2"/>
  <circle class="twinkle" cx="960" cy="140" r="1.6" style="animation-delay:-1s"/>
  <circle class="twinkle" cx="1030" cy="90" r="1.8" style="animation-delay:-2s"/>
  <circle class="twinkle" cx="30" cy="560" r="1.6"/>
  <circle class="twinkle" cx="60" cy="600" r="1.6" style="animation-delay:-1s"/>
  <circle class="twinkle" cx="20" cy="640" r="1.6" style="animation-delay:-2s"/>
  <circle class="twinkle" cx="70" cy="680" r="1.6" style="animation-delay:-0.5s"/>
  <circle class="twinkle" cx="40" cy="720" r="1.6" style="animation-delay:-1.5s"/>
</g>

<!-- circuit traces linking left content to right content -->
<g fill="none" stroke="#06B6D4" stroke-opacity="0.3" stroke-width="1.2">
  <path class="flow" d="M1060,60 h40 v-20 h50"/>
  <path class="flow" d="M1060,540 h30 v40 h60" style="animation-delay:-2s"/>
</g>
<g fill="#06B6D4" fill-opacity="0.6">
  <circle cx="1100" cy="40" r="2.4"/><circle cx="1150" cy="40" r="2.4"/>
  <circle cx="1090" cy="580" r="2.4"/><circle cx="1150" cy="580" r="2.4"/>
</g>

<!-- ================= TOP GIT COMMAND ================= -->
<text x="42" y="46" class="mono" font-size="20" fill="#6EE7B7">&gt;</text>
<text x="66" y="46" class="mono" font-size="20" fill="#A9B4D0">git push future --force</text>
<text x="380" y="46" class="mono blink" font-size="14" fill="#5B6088">&#9615;</text>

<!-- ================= LEFT FILE TREE ================= -->
<g class="mono" font-size="17">
  <text x="66" y="112" fill="#C4B5FD">&#9662;</text>
  <path d="M74,105 l7,4 l7,-4" fill="#8B5CF6"/>
  <text x="90" y="112" fill="#B9B7D9">ai</text>

  <g stroke="#2E2A55" stroke-width="1">
    <line x1="80" y1="120" x2="80" y2="330"/>
  </g>

  <g fill="#9CA3C4">
    <path d="M100,140 l6,4 l6,-4 h-12z" fill="#6B6FA5" opacity="0.8"/>
    <text x="122" y="147">backend</text>

    <path d="M100,178 l6,4 l6,-4 h-12z" fill="#6B6FA5" opacity="0.8"/>
    <text x="122" y="185">frontend</text>

    <path d="M100,216 l6,4 l6,-4 h-12z" fill="#6B6FA5" opacity="0.8"/>
    <text x="122" y="223">cloud</text>

    <path d="M100,254 l6,4 l6,-4 h-12z" fill="#6B6FA5" opacity="0.8"/>
    <text x="122" y="261">data</text>

    <path d="M100,292 l6,4 l6,-4 h-12z" fill="#6B6FA5" opacity="0.8"/>
    <text x="122" y="299">tools</text>
  </g>

  <path d="M66,332 l6,4 l6,-4 h-12z" fill="#6B6FA5" opacity="0.9"/>
  <text x="90" y="339" fill="#B9B7D9">projects</text>

  <rect x="66" y="358" width="14" height="17" rx="2" fill="none" stroke="#67E8F9" stroke-width="1.4"/>
  <line x1="70" y1="365" x2="76" y2="365" stroke="#67E8F9" stroke-width="1.2"/>
  <line x1="70" y1="370" x2="76" y2="370" stroke="#67E8F9" stroke-width="1.2"/>
  <text x="90" y="372" fill="#67E8F9">README.md</text>
</g>

<line x1="230" y1="80" x2="230" y2="600" stroke="#1D1B3A" stroke-width="1"/>

<!-- ================= MAIN NAME BLOCK ================= -->
<g class="sans" font-weight="800">
  <text x="270" y="185" font-size="86" fill="#F5F3FF">Divya</text>
  <text x="470" y="185" font-size="60" fill="#67E8F9">&lt;/&gt;</text>

  <text x="270" y="278" font-size="86" fill="url(#nameGrad)">Venkatachalam</text>

  <text x="270" y="371" font-size="86" fill="#F5F3FF">Thiruneelakandan</text>
</g>

<!-- live status chip -->
<g transform="translate(1030,150)">
  <rect x="0" y="0" width="216" height="36" rx="18" fill="rgba(52,211,153,0.08)" stroke="#1F5B45" stroke-width="1"/>
  <circle cx="20" cy="18" r="5" fill="#34D399"/>
  <circle class="ring" cx="20" cy="18" r="5" fill="none" stroke="#34D399" stroke-width="1.5"/>
  <text x="34" y="23" class="sans" font-size="13" font-weight="600" fill="#A7F3D0">Currently building AI agents</text>
</g>

<!-- ================= SUBTITLE ================= -->
<text x="272" y="428" class="sans" font-size="24" font-weight="600" letter-spacing="2" fill="#C7C5E6">
  AI ENGINEER <tspan fill="#5B6088">&#183;</tspan> GENERATIVE AI DEVELOPER <tspan fill="#5B6088">&#183;</tspan> FULL STACK ENGINEER
</text>
<rect x="272" y="450" width="780" height="3" rx="1.5" fill="url(#nameGrad)"/>

<!-- contribution heatmap strip -->
<g transform="translate(272,470)">
  <text x="0" y="14" class="mono" font-size="12" fill="#5B6088">contributions //</text>
  <g id="heat">
  <rect x="0" y="22" width="12" height="12" rx="2.5" fill="url(#heat0)"/>
  <rect x="0" y="37" width="12" height="12" rx="2.5" fill="url(#heat2)"/>
  <rect x="0" y="52" width="12" height="12" rx="2.5" fill="url(#heat1)"/>
  <rect x="0" y="67" width="12" height="12" rx="2.5" fill="url(#heat0)"/>
  <rect x="0" y="82" width="12" height="12" rx="2.5" fill="url(#heat0)"/>
  <rect x="0" y="97" width="12" height="12" rx="2.5" fill="url(#heat0)"/>
  <rect x="0" y="112" width="12" height="12" rx="2.5" fill="url(#heat1)"/>
  <rect x="15" y="22" width="12" height="12" rx="2.5" fill="url(#heat0)"/>
  <rect x="15" y="37" width="12" height="12" rx="2.5" fill="url(#heat1)"/>
  <rect x="15" y="52" width="12" height="12" rx="2.5" fill="url(#heat1)"/>
  <rect x="15" y="67" width="12" height="12" rx="2.5" fill="url(#heat3)"/>
  <rect x="15" y="82" width="12" height="12" rx="2.5" fill="url(#heat3)"/>
  <rect x="15" y="97" width="12" height="12" rx="2.5" fill="url(#heat0)"/>
  <rect x="15" y="112" width="12" height="12" rx="2.5" fill="url(#heat0)"/>
  <rect x="30" y="22" width="12" height="12" rx="2.5" fill="url(#heat0)"/>
  <rect x="30" y="37" width="12" height="12" rx="2.5" fill="url(#heat1)"/>
  <rect x="30" y="52" width="12" height="12" rx="2.5" fill="url(#heat1)"/>
  <rect x="30" y="67" width="12" height="12" rx="2.5" fill="url(#heat0)"/>
  <rect x="30" y="82" width="12" height="12" rx="2.5" fill="url(#heat2)"/>
  <rect x="30" y="97" width="12" height="12" rx="2.5" fill="url(#heat0)"/>
  <rect x="30" y="112" width="12" height="12" rx="2.5" fill="url(#heat1)"/>
  <rect x="45" y="22" width="12" height="12" rx="2.5" fill="url(#heat2)"/>
  <rect x="45" y="37" width="12" height="12" rx="2.5" fill="url(#heat0)"/>
  <rect x="45" y="52" width="12" height="12" rx="2.5" fill="url(#heat1)"/>
  <rect x="45" y="67" width="12" height="12" rx="2.5" fill="url(#heat2)"/>
  <rect x="45" y="82" width="12" height="12" rx="2.5" fill="url(#heat3)"/>
  <rect x="45" y="97" width="12" height="12" rx="2.5" fill="url(#heat1)"/>
  <rect x="45" y="112" width="12" height="12" rx="2.5" fill="url(#heat0)"/>
  <rect x="60" y="22" width="12" height="12" rx="2.5" fill="url(#heat0)"/>
  <rect x="60" y="37" width="12" height="12" rx="2.5" fill="url(#heat2)"/>
  <rect x="60" y="52" width="12" height="12" rx="2.5" fill="url(#heat3)"/>
  <rect x="60" y="67" width="12" height="12" rx="2.5" fill="url(#heat2)"/>
  <rect x="60" y="82" width="12" height="12" rx="2.5" fill="url(#heat1)"/>
  <rect x="60" y="97" width="12" height="12" rx="2.5" fill="url(#heat2)"/>
  <rect x="60" y="112" width="12" height="12" rx="2.5" fill="url(#heat1)"/>
  <rect x="75" y="22" width="12" height="12" rx="2.5" fill="url(#heat0)"/>
  <rect x="75" y="37" width="12" height="12" rx="2.5" fill="url(#heat1)"/>
  <rect x="75" y="52" width="12" height="12" rx="2.5" fill="url(#heat2)"/>
  <rect x="75" y="67" width="12" height="12" rx="2.5" fill="url(#heat1)"/>
  <rect x="75" y="82" width="12" height="12" rx="2.5" fill="url(#heat0)"/>
  <rect x="75" y="97" width="12" height="12" rx="2.5" fill="url(#heat0)"/>
  <rect x="75" y="112" width="12" height="12" rx="2.5" fill="url(#heat0)"/>
  <rect x="90" y="22" width="12" height="12" rx="2.5" fill="url(#heat0)"/>
  <rect x="90" y="37" width="12" height="12" rx="2.5" fill="url(#heat1)"/>
  <rect x="90" y="52" width="12" height="12" rx="2.5" fill="url(#heat0)"/>
  <rect x="90" y="67" width="12" height="12" rx="2.5" fill="url(#heat1)"/>
  <rect x="90" y="82" width="12" height="12" rx="2.5" fill="url(#heat2)"/>
  <rect x="90" y="97" width="12" height="12" rx="2.5" fill="url(#heat0)"/>
  <rect x="90" y="112" width="12" height="12" rx="2.5" fill="url(#heat1)"/>
  <rect x="105" y="22" width="12" height="12" rx="2.5" fill="url(#heat3)"/>
  <rect x="105" y="37" width="12" height="12" rx="2.5" fill="url(#heat0)"/>
  <rect x="105" y="52" width="12" height="12" rx="2.5" fill="url(#heat0)"/>
  <rect x="105" y="67" width="12" height="12" rx="2.5" fill="url(#heat1)"/>
  <rect x="105" y="82" width="12" height="12" rx="2.5" fill="url(#heat0)"/>
  <rect x="105" y="97" width="12" height="12" rx="2.5" fill="url(#heat1)"/>
  <rect x="105" y="112" width="12" height="12" rx="2.5" fill="url(#heat3)"/>
  <rect x="120" y="22" width="12" height="12" rx="2.5" fill="url(#heat1)"/>
  <rect x="120" y="37" width="12" height="12" rx="2.5" fill="url(#heat2)"/>
  <rect x="120" y="52" width="12" height="12" rx="2.5" fill="url(#heat3)"/>
  <rect x="120" y="67" width="12" height="12" rx="2.5" fill="url(#heat3)"/>
  <rect x="120" y="82" width="12" height="12" rx="2.5" fill="url(#heat1)"/>
  <rect x="120" y="97" width="12" height="12" rx="2.5" fill="url(#heat0)"/>
  <rect x="120" y="112" width="12" height="12" rx="2.5" fill="url(#heat0)"/>
  <rect x="135" y="22" width="12" height="12" rx="2.5" fill="url(#heat0)"/>
  <rect x="135" y="37" width="12" height="12" rx="2.5" fill="url(#heat0)"/>
  <rect x="135" y="52" width="12" height="12" rx="2.5" fill="url(#heat0)"/>
  <rect x="135" y="67" width="12" height="12" rx="2.5" fill="url(#heat0)"/>
  <rect x="135" y="82" width="12" height="12" rx="2.5" fill="url(#heat0)"/>
  <rect x="135" y="97" width="12" height="12" rx="2.5" fill="url(#heat1)"/>
  <rect x="135" y="112" width="12" height="12" rx="2.5" fill="url(#heat0)"/>
  <rect x="150" y="22" width="12" height="12" rx="2.5" fill="url(#heat1)"/>
  <rect x="150" y="37" width="12" height="12" rx="2.5" fill="url(#heat2)"/>
  <rect x="150" y="52" width="12" height="12" rx="2.5" fill="url(#heat1)"/>
  <rect x="150" y="67" width="12" height="12" rx="2.5" fill="url(#heat0)"/>
  <rect x="150" y="82" width="12" height="12" rx="2.5" fill="url(#heat0)"/>
  <rect x="150" y="97" width="12" height="12" rx="2.5" fill="url(#heat2)"/>
  <rect x="150" y="112" width="12" height="12" rx="2.5" fill="url(#heat0)"/>
  <rect x="165" y="22" width="12" height="12" rx="2.5" fill="url(#heat1)"/>
  <rect x="165" y="37" width="12" height="12" rx="2.5" fill="url(#heat1)"/>
  <rect x="165" y="52" width="12" height="12" rx="2.5" fill="url(#heat1)"/>
  <rect x="165" y="67" width="12" height="12" rx="2.5" fill="url(#heat3)"/>
  <rect x="165" y="82" width="12" height="12" rx="2.5" fill="url(#heat0)"/>
  <rect x="165" y="97" width="12" height="12" rx="2.5" fill="url(#heat0)"/>
  <rect x="165" y="112" width="12" height="12" rx="2.5" fill="url(#heat1)"/>
  <rect x="180" y="22" width="12" height="12" rx="2.5" fill="url(#heat0)"/>
  <rect x="180" y="37" width="12" height="12" rx="2.5" fill="url(#heat2)"/>
  <rect x="180" y="52" width="12" height="12" rx="2.5" fill="url(#heat3)"/>
  <rect x="180" y="67" width="12" height="12" rx="2.5" fill="url(#heat2)"/>
  <rect x="180" y="82" width="12" height="12" rx="2.5" fill="url(#heat0)"/>
  <rect x="180" y="97" width="12" height="12" rx="2.5" fill="url(#heat1)"/>
  <rect x="180" y="112" width="12" height="12" rx="2.5" fill="url(#heat0)"/>
  <rect x="195" y="22" width="12" height="12" rx="2.5" fill="url(#heat0)"/>
  <rect x="195" y="37" width="12" height="12" rx="2.5" fill="url(#heat3)"/>
  <rect x="195" y="52" width="12" height="12" rx="2.5" fill="url(#heat3)"/>
  <rect x="195" y="67" width="12" height="12" rx="2.5" fill="url(#heat3)"/>
  <rect x="195" y="82" width="12" height="12" rx="2.5" fill="url(#heat0)"/>
  <rect x="195" y="97" width="12" height="12" rx="2.5" fill="url(#heat0)"/>
  <rect x="195" y="112" width="12" height="12" rx="2.5" fill="url(#heat1)"/>
  <rect x="210" y="22" width="12" height="12" rx="2.5" fill="url(#heat2)"/>
  <rect x="210" y="37" width="12" height="12" rx="2.5" fill="url(#heat2)"/>
  <rect x="210" y="52" width="12" height="12" rx="2.5" fill="url(#heat0)"/>
  <rect x="210" y="67" width="12" height="12" rx="2.5" fill="url(#heat3)"/>
  <rect x="210" y="82" width="12" height="12" rx="2.5" fill="url(#heat2)"/>
  <rect x="210" y="97" width="12" height="12" rx="2.5" fill="url(#heat0)"/>
  <rect x="210" y="112" width="12" height="12" rx="2.5" fill="url(#heat0)"/>
  <rect x="225" y="22" width="12" height="12" rx="2.5" fill="url(#heat3)"/>
  <rect x="225" y="37" width="12" height="12" rx="2.5" fill="url(#heat1)"/>
  <rect x="225" y="52" width="12" height="12" rx="2.5" fill="url(#heat2)"/>
  <rect x="225" y="67" width="12" height="12" rx="2.5" fill="url(#heat0)"/>
  <rect x="225" y="82" width="12" height="12" rx="2.5" fill="url(#heat3)"/>
  <rect x="225" y="97" width="12" height="12" rx="2.5" fill="url(#heat0)"/>
  <rect x="225" y="112" width="12" height="12" rx="2.5" fill="url(#heat3)"/>
  <rect x="240" y="22" width="12" height="12" rx="2.5" fill="url(#heat1)"/>
  <rect x="240" y="37" width="12" height="12" rx="2.5" fill="url(#heat0)"/>
  <rect x="240" y="52" width="12" height="12" rx="2.5" fill="url(#heat3)"/>
  <rect x="240" y="67" width="12" height="12" rx="2.5" fill="url(#heat1)"/>
  <rect x="240" y="82" width="12" height="12" rx="2.5" fill="url(#heat1)"/>
  <rect x="240" y="97" width="12" height="12" rx="2.5" fill="url(#heat2)"/>
  <rect x="240" y="112" width="12" height="12" rx="2.5" fill="url(#heat0)"/>
  <rect x="255" y="22" width="12" height="12" rx="2.5" fill="url(#heat0)"/>
  <rect x="255" y="37" width="12" height="12" rx="2.5" fill="url(#heat0)"/>
  <rect x="255" y="52" width="12" height="12" rx="2.5" fill="url(#heat0)"/>
  <rect x="255" y="67" width="12" height="12" rx="2.5" fill="url(#heat1)"/>
  <rect x="255" y="82" width="12" height="12" rx="2.5" fill="url(#heat1)"/>
  <rect x="255" y="97" width="12" height="12" rx="2.5" fill="url(#heat1)"/>
  <rect x="255" y="112" width="12" height="12" rx="2.5" fill="url(#heat1)"/>
  <rect x="270" y="22" width="12" height="12" rx="2.5" fill="url(#heat1)"/>
  <rect x="270" y="37" width="12" height="12" rx="2.5" fill="url(#heat1)"/>
  <rect x="270" y="52" width="12" height="12" rx="2.5" fill="url(#heat0)"/>
  <rect x="270" y="67" width="12" height="12" rx="2.5" fill="url(#heat0)"/>
  <rect x="270" y="82" width="12" height="12" rx="2.5" fill="url(#heat2)"/>
  <rect x="270" y="97" width="12" height="12" rx="2.5" fill="url(#heat0)"/>
  <rect x="270" y="112" width="12" height="12" rx="2.5" fill="url(#heat1)"/>
  <rect x="285" y="22" width="12" height="12" rx="2.5" fill="url(#heat0)"/>
  <rect x="285" y="37" width="12" height="12" rx="2.5" fill="url(#heat0)"/>
  <rect x="285" y="52" width="12" height="12" rx="2.5" fill="url(#heat2)"/>
  <rect x="285" y="67" width="12" height="12" rx="2.5" fill="url(#heat1)"/>
  <rect x="285" y="82" width="12" height="12" rx="2.5" fill="url(#heat3)"/>
  <rect x="285" y="97" width="12" height="12" rx="2.5" fill="url(#heat1)"/>
  <rect x="285" y="112" width="12" height="12" rx="2.5" fill="url(#heat1)"/>
  <rect x="300" y="22" width="12" height="12" rx="2.5" fill="url(#heat1)"/>
  <rect x="300" y="37" width="12" height="12" rx="2.5" fill="url(#heat1)"/>
  <rect x="300" y="52" width="12" height="12" rx="2.5" fill="url(#heat2)"/>
  <rect x="300" y="67" width="12" height="12" rx="2.5" fill="url(#heat3)"/>
  <rect x="300" y="82" width="12" height="12" rx="2.5" fill="url(#heat1)"/>
  <rect x="300" y="97" width="12" height="12" rx="2.5" fill="url(#heat2)"/>
  <rect x="300" y="112" width="12" height="12" rx="2.5" fill="url(#heat0)"/>
  <rect x="315" y="22" width="12" height="12" rx="2.5" fill="url(#heat0)"/>
  <rect x="315" y="37" width="12" height="12" rx="2.5" fill="url(#heat0)"/>
  <rect x="315" y="52" width="12" height="12" rx="2.5" fill="url(#heat2)"/>
  <rect x="315" y="67" width="12" height="12" rx="2.5" fill="url(#heat0)"/>
  <rect x="315" y="82" width="12" height="12" rx="2.5" fill="url(#heat2)"/>
  <rect x="315" y="97" width="12" height="12" rx="2.5" fill="url(#heat3)"/>
  <rect x="315" y="112" width="12" height="12" rx="2.5" fill="url(#heat0)"/>
  <rect x="330" y="22" width="12" height="12" rx="2.5" fill="url(#heat1)"/>
  <rect x="330" y="37" width="12" height="12" rx="2.5" fill="url(#heat3)"/>
  <rect x="330" y="52" width="12" height="12" rx="2.5" fill="url(#heat0)"/>
  <rect x="330" y="67" width="12" height="12" rx="2.5" fill="url(#heat1)"/>
  <rect x="330" y="82" width="12" height="12" rx="2.5" fill="url(#heat0)"/>
  <rect x="330" y="97" width="12" height="12" rx="2.5" fill="url(#heat2)"/>
  <rect x="330" y="112" width="12" height="12" rx="2.5" fill="url(#heat1)"/>
  <rect x="345" y="22" width="12" height="12" rx="2.5" fill="url(#heat0)"/>
  <rect x="345" y="37" width="12" height="12" rx="2.5" fill="url(#heat1)"/>
  <rect x="345" y="52" width="12" height="12" rx="2.5" fill="url(#heat0)"/>
  <rect x="345" y="67" width="12" height="12" rx="2.5" fill="url(#heat2)"/>
  <rect x="345" y="82" width="12" height="12" rx="2.5" fill="url(#heat0)"/>
  <rect x="345" y="97" width="12" height="12" rx="2.5" fill="url(#heat0)"/>
  <rect x="345" y="112" width="12" height="12" rx="2.5" fill="url(#heat0)"/>
  <rect x="360" y="22" width="12" height="12" rx="2.5" fill="url(#heat1)"/>
  <rect x="360" y="37" width="12" height="12" rx="2.5" fill="url(#heat2)"/>
  <rect x="360" y="52" width="12" height="12" rx="2.5" fill="url(#heat0)"/>
  <rect x="360" y="67" width="12" height="12" rx="2.5" fill="url(#heat1)"/>
  <rect x="360" y="82" width="12" height="12" rx="2.5" fill="url(#heat0)"/>
  <rect x="360" y="97" width="12" height="12" rx="2.5" fill="url(#heat2)"/>
  <rect x="360" y="112" width="12" height="12" rx="2.5" fill="url(#heat0)"/>
  <rect x="375" y="22" width="12" height="12" rx="2.5" fill="url(#heat1)"/>
  <rect x="375" y="37" width="12" height="12" rx="2.5" fill="url(#heat0)"/>
  <rect x="375" y="52" width="12" height="12" rx="2.5" fill="url(#heat0)"/>
  <rect x="375" y="67" width="12" height="12" rx="2.5" fill="url(#heat1)"/>
  <rect x="375" y="82" width="12" height="12" rx="2.5" fill="url(#heat1)"/>
  <rect x="375" y="97" width="12" height="12" rx="2.5" fill="url(#heat0)"/>
  <rect x="375" y="112" width="12" height="12" rx="2.5" fill="url(#heat1)"/>
  </g>
</g>

<!-- ================= TECH STACK ROW ================= -->
<g class="sans" font-size="16" font-weight="600" fill="#B9B7D9" text-anchor="middle">

  <g transform="translate(312,548)">
    <circle r="34" fill="#3B82F6" opacity="0.10" filter="url(#blurMd)"/>
    <circle r="30" fill="none" stroke="#3B82F6" stroke-width="1.4" opacity="0.5"/>
    <path d="M-10,-14 h14 a6,6 0 0 1 6,6 v6 h-14 a6,6 0 0 1 -6,-6z" fill="#3B82F6"/>
    <path d="M10,14 h-14 a6,6 0 0 1 -6,-6 v-6 h14 a6,6 0 0 1 6,6z" fill="#F9D65C"/>
    <text y="52">Python</text>
  </g>

  <g transform="translate(452,548)">
    <circle r="34" fill="#F97316" opacity="0.10" filter="url(#blurMd)"/>
    <circle r="30" fill="none" stroke="#F97316" stroke-width="1.4" opacity="0.5"/>
    <polygon points="0,-16 14,-8 14,8 0,16 -14,8 -14,-8" fill="none" stroke="#F97316" stroke-width="2"/>
    <text y="52">TensorFlow</text>
  </g>

  <g transform="translate(592,548)">
    <circle r="34" fill="#67E8F9" opacity="0.10" filter="url(#blurMd)"/>
    <circle r="30" fill="none" stroke="#67E8F9" stroke-width="1.4" opacity="0.5"/>
    <circle r="4.5" fill="#67E8F9"/>
    <g fill="none" stroke="#67E8F9" stroke-width="1.6">
      <ellipse rx="18" ry="7"/>
      <ellipse rx="18" ry="7" transform="rotate(60)"/>
      <ellipse rx="18" ry="7" transform="rotate(120)"/>
    </g>
    <text y="52">React</text>
  </g>

  <g transform="translate(732,548)">
    <circle r="34" fill="#22C55E" opacity="0.10" filter="url(#blurMd)"/>
    <circle r="30" fill="none" stroke="#22C55E" stroke-width="1.4" opacity="0.5"/>
    <polygon points="0,-16 14,-8 14,8 0,16 -14,8 -14,-8" fill="#22C55E" opacity="0.9"/>
    <text y="52">Node.js</text>
  </g>

  <g transform="translate(872,548)">
    <circle r="34" fill="#3B82F6" opacity="0.10" filter="url(#blurMd)"/>
    <circle r="30" fill="none" stroke="#3B82F6" stroke-width="1.4" opacity="0.5"/>
    <ellipse cx="0" cy="-8" rx="15" ry="6" fill="none" stroke="#93C5FD" stroke-width="1.6"/>
    <path d="M-15,-8 v14 a15,6 0 0 0 30,0 v-14" fill="none" stroke="#93C5FD" stroke-width="1.6"/>
    <text y="52">PostgreSQL</text>
  </g>

  <g transform="translate(1012,548)">
    <circle r="34" fill="#38BDF8" opacity="0.10" filter="url(#blurMd)"/>
    <circle r="30" fill="none" stroke="#38BDF8" stroke-width="1.4" opacity="0.5"/>
    <g fill="#38BDF8">
      <rect x="-18" y="-4" width="9" height="9" rx="1"/>
      <rect x="-6" y="-4" width="9" height="9" rx="1"/>
      <rect x="6" y="-4" width="9" height="9" rx="1"/>
      <rect x="-6" y="-15" width="9" height="9" rx="1"/>
      <rect x="6" y="-15" width="9" height="9" rx="1"/>
    </g>
    <path d="M-22,10 q22,14 44,0" fill="none" stroke="#38BDF8" stroke-width="2"/>
    <text y="52">Docker</text>
  </g>

  <g transform="translate(1152,548)">
    <circle r="34" fill="#F59E0B" opacity="0.10" filter="url(#blurMd)"/>
    <circle r="30" fill="none" stroke="#F59E0B" stroke-width="1.4" opacity="0.5"/>
    <path d="M-16,6 q16,14 32,0" fill="none" stroke="#F59E0B" stroke-width="2.4" stroke-linecap="round"/>
    <polygon points="14,4 22,4 18,-3" fill="#F59E0B"/>
    <text y="52">AWS</text>
  </g>

  <g transform="translate(1292,548)">
    <circle r="34" fill="#A855F7" opacity="0.10" filter="url(#blurMd)"/>
    <circle r="30" fill="none" stroke="#A855F7" stroke-width="1.4" opacity="0.5"/>
    <line x1="-10" y1="-14" x2="10" y2="14" stroke="#C084FC" stroke-width="2.2"/>
    <circle cx="-10" cy="-14" r="4" fill="#C084FC"/>
    <circle cx="10" cy="14" r="4" fill="#C084FC"/>
    <circle cx="2" cy="0" r="4" fill="#C084FC"/>
    <text y="52">Git</text>
  </g>
</g>

<!-- ================= BOTTOM TERMINAL LINES ================= -->
<g class="mono" font-size="19">
  <text x="272" y="638" fill="#67E8F9">divya@dev:~$</text>
  <text x="452" y="638" fill="#B9B7D9">code. build. innovate. repeat.</text>
  <text x="272" y="664" fill="#5B6088">// Turning ideas into intelligent solutions.</text>
</g>

<!-- ================= BOTTOM PILL BAR ================= -->
<g transform="translate(310,690)">
  <rect x="0" y="0" width="1200" height="58" rx="16" fill="rgba(139,92,246,0.06)" stroke="#2E2A55" stroke-width="1"/>
  <rect x="1" y="1" width="1198" height="18" rx="15" fill="#FFFFFF" opacity="0.03"/>
  <g class="sans" font-size="16" font-weight="600" fill="#C7C5E6">
    <g transform="translate(36,29)">
      <rect x="-10" y="-10" width="20" height="20" rx="4" fill="none" stroke="#67E8F9" stroke-width="1.6"/>
      <text x="24" y="6">Problem Solver</text>
    </g>
    <g transform="translate(260,29)">
      <polygon points="-4,-10 6,-10 0,0 6,0 -6,12 -2,1 -8,1" fill="#FBBF24"/>
      <text x="20" y="6">Fast Learner</text>
    </g>
    <g transform="translate(468,29)">
      <circle r="10" fill="none" stroke="#A855F7" stroke-width="1.6"/>
      <path d="M-4,-3 a4,4 0 1 1 5,4" fill="none" stroke="#A855F7" stroke-width="1.4"/>
      <text x="22" y="6">AI Enthusiast</text>
    </g>
    <g transform="translate(690,29)">
      <path d="M-8,8 l10,-18 l6,10 l-8,4 z" fill="#34D399"/>
      <text x="20" y="6">Builder</text>
    </g>
    <g transform="translate(858,29)">
      <path d="M0,-10 C7,-10 10,-4 6,2 C3,7 0,10 0,10 C0,10 -3,7 -6,2 C-10,-4 -7,-10 0,-10 Z" fill="none" stroke="#67E8F9" stroke-width="1.6"/>
      <text x="18" y="6">Lifelong Learner</text>
    </g>
  </g>
</g>

<!-- ================================================================
     RIGHT SIDE
     ================================================================ -->

<!-- DVT dot-matrix pattern -->
<g fill="#8B5CF6" fill-opacity="0.55">
  <g transform="translate(1660,30)">
    <circle class="twinkle" cx="0" cy="0" r="2"/><circle class="twinkle" cx="10" cy="0" r="2" style="animation-delay:-0.3s"/>
    <circle class="twinkle" cx="0" cy="14" r="2" style="animation-delay:-0.6s"/><circle class="twinkle" cx="14" cy="14" r="2" style="animation-delay:-0.9s"/>
    <circle class="twinkle" cx="0" cy="28" r="2" style="animation-delay:-1.2s"/><circle class="twinkle" cx="10" cy="28" r="2" style="animation-delay:-1.5s"/>
    <circle class="twinkle" cx="0" cy="42" r="2" style="animation-delay:-0.4s"/><circle class="twinkle" cx="14" cy="42" r="2" style="animation-delay:-1.8s"/>
    <circle class="twinkle" cx="0" cy="56" r="2" style="animation-delay:-2.1s"/><circle class="twinkle" cx="10" cy="56" r="2" style="animation-delay:-0.2s"/>
    <circle class="twinkle" cx="0" cy="70" r="2" style="animation-delay:-2.4s"/><circle class="twinkle" cx="14" cy="70" r="2" style="animation-delay:-1.1s"/>
  </g>
  <g transform="translate(1730,30)">
    <circle class="twinkle" cx="0" cy="0" r="2"/><circle class="twinkle" cx="20" cy="0" r="2" style="animation-delay:-0.5s"/>
    <circle class="twinkle" cx="2" cy="20" r="2" style="animation-delay:-1s"/><circle class="twinkle" cx="18" cy="20" r="2" style="animation-delay:-1.5s"/>
    <circle class="twinkle" cx="6" cy="40" r="2" style="animation-delay:-2s"/><circle class="twinkle" cx="14" cy="40" r="2" style="animation-delay:-0.2s"/>
    <circle class="twinkle" cx="10" cy="56" r="2.4" style="animation-delay:-2.5s"/>
  </g>
  <g transform="translate(1800,30)">
    <circle class="twinkle" cx="0" cy="0" r="2"/><circle class="twinkle" cx="10" cy="0" r="2" style="animation-delay:-0.4s"/><circle class="twinkle" cx="20" cy="0" r="2" style="animation-delay:-0.8s"/>
    <circle class="twinkle" cx="10" cy="16" r="2" style="animation-delay:-1.2s"/><circle class="twinkle" cx="10" cy="32" r="2" style="animation-delay:-1.6s"/>
    <circle class="twinkle" cx="10" cy="48" r="2" style="animation-delay:-2s"/><circle class="twinkle" cx="10" cy="64" r="2" style="animation-delay:-2.4s"/>
  </g>
</g>
<text x="1900" y="150" class="mono" font-size="13" fill="#5B6088">&gt;_</text>

<!-- Quote bubble -->
<g transform="translate(1210,60)">
  <rect x="0" y="0" width="470" height="98" rx="16" fill="rgba(139,92,246,0.07)" stroke="#3A3568" stroke-width="1"/>
  <text x="20" y="34" class="sans" font-size="34" fill="#7C3AED" font-weight="800">&#8220;</text>
  <text x="46" y="40" class="sans" font-size="19" fill="#E5E4F5">I don&#8217;t just write code,</text>
  <text x="46" y="70" class="sans" font-size="19" fill="#E5E4F5">I build solutions that <tspan fill="#67E8F9" font-weight="700">think.</tspan></text>
</g>

<!-- Code editor window (advanced: tabs + line numbers + status bar) -->
<g transform="translate(1150,190)">
  <rect x="0" y="0" width="500" height="360" rx="14" fill="#0A0D20" stroke="#2E2A55" stroke-width="1.4"/>

  <!-- title bar -->
  <rect x="0" y="0" width="500" height="34" rx="14" fill="#12162e"/>
  <rect x="0" y="20" width="500" height="14" fill="#12162e"/>
  <circle cx="20" cy="17" r="6" fill="#F87171"/>
  <circle cx="40" cy="17" r="6" fill="#FBBF24"/>
  <circle cx="60" cy="17" r="6" fill="#34D399"/>

  <!-- tab bar -->
  <rect x="0" y="34" width="500" height="28" fill="#0D1024"/>
  <rect x="0" y="34" width="122" height="28" fill="#12162e"/>
  <rect x="0" y="60" width="122" height="2" fill="#7C3AED"/>
  <text x="18" y="52" class="mono" font-size="12" fill="#C7C5E6">developer.py</text>
  <text x="140" y="52" class="mono" font-size="12" fill="#5B6088">agent.py</text>

  <!-- gutter -->
  <rect x="0" y="62" width="34" height="230" fill="#0D1024"/>
  <g class="mono" font-size="14" fill="#3A3568" text-anchor="end">
    <text x="26" y="90">1</text><text x="26" y="118">2</text><text x="26" y="146">3</text>
    <text x="26" y="174">4</text><text x="26" y="202">5</text><text x="26" y="230">6</text>
    <text x="26" y="258">7</text><text x="26" y="286">8</text>
  </g>

  <g class="mono" font-size="16" clip-path="url(#clipScan)">
    <g class="scan"><rect x="40" y="60" width="450" height="1" fill="#7C3AED" opacity="0.12"/></g>
  </g>

  <g class="mono" font-size="16">
    <text x="44" y="90"><tspan fill="#C084FC">class</tspan><tspan fill="#F3F1FF"> Developer:</tspan></text>
    <text x="44" y="118"><tspan fill="#C084FC">    def</tspan><tspan fill="#60A5FA"> __init__</tspan><tspan fill="#F3F1FF">(self):</tspan></text>
    <text x="44" y="146"><tspan fill="#F3F1FF">        self.passion = </tspan><tspan fill="#34D399">"AI &amp; Code"</tspan></text>
    <text x="44" y="174"><tspan fill="#F3F1FF">        self.focus = [</tspan><tspan fill="#34D399">"Learn","Build","Ship"</tspan><tspan fill="#F3F1FF">]</tspan></text>
    <text x="44" y="202"><tspan fill="#F3F1FF">        self.mindset = </tspan><tspan fill="#34D399">"Progress &gt; Perfection"</tspan></text>
    <text x="44" y="230"><tspan fill="#C084FC">    def</tspan><tspan fill="#60A5FA"> build</tspan><tspan fill="#F3F1FF">(self, idea):</tspan></text>
    <text x="44" y="258"><tspan fill="#C084FC">        return</tspan><tspan fill="#F3F1FF"> f</tspan><tspan fill="#34D399">"Building {idea}..."</tspan></text>
    <text x="44" y="286"><tspan fill="#F3F1FF">divya = </tspan><tspan fill="#60A5FA">Developer</tspan><tspan fill="#F3F1FF">()</tspan><tspan class="blink" fill="#67E8F9">&#9615;</tspan></text>
  </g>

  <!-- status bar -->
  <rect x="0" y="330" width="500" height="30" fill="#12162e"/>
  <g fill="#8B5CF6">
    <line x1="16" y1="345" x2="16" y2="345" stroke="#8B5CF6"/>
    <path d="M14,338 v14 M14,338 l6,4 l-6,4" fill="none" stroke="#8B5CF6" stroke-width="1.4"/>
  </g>
  <text x="30" y="349" class="mono" font-size="11" fill="#B9B7D9">main</text>
  <circle cx="70" cy="345" r="3" fill="#34D399"/>
  <text x="80" y="349" class="mono" font-size="11" fill="#B9B7D9">no issues</text>
  <text x="480" y="349" class="mono" font-size="11" fill="#5B6088" text-anchor="end">Python 3.11</text>
</g>

<!-- Small skills terminal window -->
<g transform="translate(1680,215)">
  <rect x="0" y="0" width="270" height="270" rx="14" fill="#0A0D20" stroke="#2E2A55" stroke-width="1.4"/>
  <rect x="0" y="0" width="270" height="30" rx="14" fill="#12162e"/>
  <rect x="0" y="16" width="270" height="14" fill="#12162e"/>
  <circle cx="18" cy="15" r="5" fill="#F87171"/>
  <circle cx="34" cy="15" r="5" fill="#FBBF24"/>
  <circle cx="50" cy="15" r="5" fill="#34D399"/>

  <g class="mono" font-size="13.5">
    <text x="16" y="56" fill="#67E8F9">divya@dev:~$ ls -la skills/</text>
    <text x="26" y="82"><tspan fill="#7C3AED">&#9679; </tspan><tspan fill="#C7C5E6">ai/</tspan></text>
    <text x="26" y="106"><tspan fill="#7C3AED">&#9679; </tspan><tspan fill="#C7C5E6">ml/</tspan></text>
    <text x="26" y="130"><tspan fill="#7C3AED">&#9679; </tspan><tspan fill="#C7C5E6">backend/</tspan></text>
    <text x="26" y="154"><tspan fill="#7C3AED">&#9679; </tspan><tspan fill="#C7C5E6">frontend/</tspan></text>
    <text x="26" y="178"><tspan fill="#7C3AED">&#9679; </tspan><tspan fill="#C7C5E6">cloud/</tspan></text>
    <text x="26" y="202"><tspan fill="#7C3AED">&#9679; </tspan><tspan fill="#C7C5E6">devops/</tspan></text>
  </g>

  <!-- skill level bars -->
  <g transform="translate(16,214)">
    <rect x="0" y="0" width="238" height="4" rx="2" fill="#1D1B3A"/>
    <rect class="barGrow" x="0" y="0" width="238" height="4" rx="2" fill="#67E8F9"/>
    <text x="0" y="-6" class="mono" font-size="10" fill="#5B6088">proficiency</text>
  </g>
  <text x="16" y="252" class="mono" font-size="13.5" fill="#5B6088">6 directories</text>
</g>

<!-- mini git commit graph -->
<g transform="translate(1680,505)" class="mono" font-size="12">
  <rect x="0" y="0" width="270" height="120" rx="14" fill="#0A0D20" stroke="#2E2A55" stroke-width="1.4"/>
  <text x="16" y="24" fill="#5B6088">commit history</text>
  <g stroke="#A855F7" stroke-width="1.6" fill="none" opacity="0.85">
    <path d="M30,40 v50"/>
    <path d="M30,58 C42,58 46,74 58,74"/>
    <path d="M58,74 v14"/>
  </g>
  <g fill="#C084FC">
    <circle cx="30" cy="40" r="3.6"/>
    <circle cx="30" cy="58" r="3.6"/>
    <circle cx="30" cy="90" r="3.6"/>
    <circle cx="58" cy="74" r="3.6"/>
    <circle cx="58" cy="90" r="3.6"/>
  </g>
  <text x="70" y="44" fill="#B9B7D9">feat: agent core</text>
  <text x="70" y="62" fill="#B9B7D9">fix: vector db</text>
  <text x="70" y="94" fill="#B9B7D9">chore: deploy</text>
</g>

<!-- Brain badge floating -->
<g transform="translate(1490,505)" class="float">
  <rect x="0" y="0" width="170" height="90" rx="16" fill="rgba(6,182,212,0.08)" stroke="#0E7490" stroke-width="1.4"/>
  <g transform="translate(30,32)">
    <path d="M-14,-10 a10,10 0 0 1 14,-4 a10,10 0 0 1 14,4 a9,9 0 0 1 -3,17 a9,9 0 0 1 -22,0 a9,9 0 0 1 -3,-17z"
          fill="none" stroke="#67E8F9" stroke-width="1.6"/>
    <line x1="0" y1="-13" x2="0" y2="12" stroke="#67E8F9" stroke-width="1.2" opacity="0.7"/>
  </g>
  <text x="56" y="42" class="sans" font-size="14" font-weight="700" fill="#A5F3FC">Generative AI</text>
  <text x="56" y="62" class="sans" font-size="14" font-weight="700" fill="#A5F3FC">Explorer</text>
</g>

<!-- ============= ILLUSTRATED DEVELOPER AT DESK (advanced) ============= -->
<g transform="translate(1560,430)">

  <!-- desk lamp glow behind -->
  <circle cx="-170" cy="20" r="70" fill="url(#lampGlow)" filter="url(#blurMd)"/>
  <g transform="translate(-170,10)">
    <path d="M0,60 v-30 l-30,-40" fill="none" stroke="#3A3568" stroke-width="4" stroke-linecap="round"/>
    <ellipse cx="-30" cy="-14" rx="22" ry="10" fill="#3A3568"/>
    <ellipse cx="0" cy="64" rx="16" ry="4" fill="#2E2A55"/>
  </g>

  <!-- second monitor silhouette behind laptop -->
  <g transform="translate(-40,150)" opacity="0.6">
    <rect x="-70" y="-60" width="140" height="90" rx="6" fill="#0D0F26" stroke="#2E2A55" stroke-width="1.4"/>
    <rect x="-58" y="-48" width="116" height="66" rx="3" fill="url(#winGrad)"/>
    <g stroke="#3A3568" stroke-width="1.4">
      <line x1="-46" y1="-30" x2="20" y2="-30"/>
      <line x1="-46" y1="-16" x2="34" y2="-16"/>
      <line x1="-46" y1="-2" x2="4" y2="-2"/>
    </g>
    <rect x="-10" y="30" width="20" height="10" fill="#2E2A55"/>
  </g>

  <!-- desk surface -->
  <polygon points="-140,300 480,300 480,330 -140,330" fill="#141330"/>
  <rect x="-140" y="295" width="620" height="10" fill="#1B1A3D"/>
  <rect x="-140" y="295" width="620" height="2" fill="#302C5C" opacity="0.6"/>

  <!-- chair -->
  <path d="M180,90 q70,-6 66,80 q30,10 24,50 l-18,110 q-4,20 -26,20 h-30 l10,-150 q4,-40 -26,-46z"
        fill="url(#personGrad)"/>

  <!-- plant pot -->
  <g transform="translate(-90,230)">
    <path d="M-16,0 h32 l-6,40 h-20 z" fill="#2E2A55"/>
    <path d="M0,-4 q-22,-18 -30,-46 q26,-2 34,20 q10,-30 34,-30 q0,30 -22,44 q10,4 8,14 q-14,-8 -24,-2z" fill="#22C55E" opacity="0.85"/>
  </g>

  <!-- mug with steam -->
  <g transform="translate(-20,268)">
    <rect x="-14" y="0" width="28" height="26" rx="4" fill="#3A3568"/>
    <path d="M14,6 q14,0 14,10 q0,10 -14,10" fill="none" stroke="#3A3568" stroke-width="4"/>
    <path class="steam" d="M-4,-6 q-4,-8 2,-14" fill="none" stroke="#8B94C9" stroke-width="2" stroke-linecap="round"/>
    <path class="steam" style="animation-delay:-1.3s" d="M4,-6 q4,-8 -2,-14" fill="none" stroke="#8B94C9" stroke-width="2" stroke-linecap="round"/>
  </g>

  <!-- laptop on desk with detailed keys -->
  <g transform="translate(60,220)">
    <polygon points="-90,60 90,60 116,84 -116,84" fill="#1B1A3D" stroke="#302C5C" stroke-width="1"/>
    <polygon points="-90,60 90,60 78,-58 -78,-58" fill="#100E28" stroke="#302C5C" stroke-width="1"/>
    <polygon points="-72,50 72,50 62,-46 -62,-46" fill="url(#winGrad)" stroke="#7C3AED" stroke-opacity="0.5" stroke-width="1"/>
    <text x="0" y="-18" text-anchor="middle" class="mono" font-size="11" fill="#67E8F9">&lt;/&gt;</text>
    <line x1="-40" y1="4" x2="40" y2="4" stroke="#3A3568" stroke-width="2"/>
    <line x1="-46" y1="16" x2="46" y2="16" stroke="#3A3568" stroke-width="2"/>
    <line x1="-34" y1="28" x2="34" y2="28" stroke="#3A3568" stroke-width="2"/>
    <g fill="#241F45" opacity="0.9">
      <rect x="-78" y="64" width="10" height="7" rx="1.5"/><rect x="-64" y="64" width="10" height="7" rx="1.5"/>
      <rect x="-50" y="64" width="10" height="7" rx="1.5"/><rect x="-36" y="64" width="10" height="7" rx="1.5"/>
      <rect x="-22" y="64" width="10" height="7" rx="1.5"/><rect x="-8" y="64" width="10" height="7" rx="1.5"/>
      <rect x="6" y="64" width="10" height="7" rx="1.5"/><rect x="20" y="64" width="10" height="7" rx="1.5"/>
      <rect x="34" y="64" width="10" height="7" rx="1.5"/><rect x="48" y="64" width="10" height="7" rx="1.5"/>
      <rect x="62" y="64" width="10" height="7" rx="1.5"/>
    </g>
    <rect x="-24" y="74" width="48" height="6" rx="3" fill="#241F45" opacity="0.9"/>
  </g>

  <!-- torso / hoodie (back view) -->
  <path d="M20,120 q-70,-6 -96,60 q-14,34 -6,90 q4,30 30,34 h190 q26,-4 30,-34 q8,-56 -6,-90 q-26,-66 -96,-60z"
        fill="url(#personGrad)"/>
  <path d="M20,120 q-70,-6 -96,60 q-8,20 -8,44 h214 q0,-24 -8,-44 q-26,-66 -102,-60z"
        fill="#231C4A" opacity="0.55"/>
  <path d="M-30,150 q100,-18 200,4" fill="none" stroke="#4B3F86" stroke-width="1.4" opacity="0.4"/>

  <!-- hood collar -->
  <path d="M-30,118 q50,-24 100,0 q-6,20 -50,20 q-44,0 -50,-20z" fill="#2A2352"/>

  <!-- headphones -->
  <path d="M-24,32 a48,48 0 0 1 96,0" fill="none" stroke="#241F45" stroke-width="6" stroke-linecap="round"/>
  <rect x="-32" y="30" width="12" height="20" rx="5" fill="#241F45"/>
  <rect x="66" y="30" width="12" height="20" rx="5" fill="#241F45"/>

  <!-- arm reaching to keyboard -->
  <path d="M92,150 q56,10 70,54 q6,20 -10,28 q-18,6 -28,-14 q-14,-30 -46,-42z" fill="url(#personGrad)"/>
  <ellipse cx="150" cy="222" rx="10" ry="7" fill="#3B2E6B"/>

  <path d="M-64,150 q-50,14 -60,56 q-4,18 12,24 q16,4 24,-14 q10,-28 40,-40z" fill="url(#personGrad)"/>
  <ellipse cx="-104" cy="220" rx="9" ry="6" fill="#3B2E6B"/>

  <!-- head -->
  <circle cx="20" cy="60" r="46" fill="#3B2E6B"/>
  <path d="M-26,44 q-4,-52 46,-56 q52,-2 56,50 q2,20 -8,34 q4,-30 -10,-46 q-16,-18 -42,-16 q-30,2 -36,30 q-6,-4 -6,4z"
        fill="url(#hairGrad)"/>
  <path d="M62,26 q30,4 30,44 q2,34 -14,64 q-10,18 -22,16 q10,-30 6,-56 q-4,-30 -22,-46 q10,-16 22,-22z"
        fill="url(#hairGrad)"/>
  <path d="M60,30 q26,6 24,42" fill="none" stroke="#3A3568" stroke-width="1" opacity="0.5"/>
  <ellipse cx="-22" cy="62" rx="6" ry="10" fill="#3B2E6B"/>
</g>

</svg>
